<svg xmlns="http://www.w3.org/2000/svg" viewBox="0 0 64 64" id="resume">
  <g>
    <rect width="42" height="50" x="19" y="11" fill="#a97c50" rx="4"></rect>
    <path fill="#e6e7e8" d="M57 16v33h-6a2.006 2.006 0 0 0-2 2v6H24a1 1 0 0 1-1-1V16a1 1 0 0 1 1-1h32a1 1 0 0 1 1 1Z"></path>
    <path fill="#e6e7e8" d="M57 49v7a1 1 0 0 1-1 1h-7Z"></path>
    <path fill="#bcbec0" d="m57 49-8 8v-6a2.006 2.006 0 0 1 2-2Z"></path>
    <path fill="#ffb655" d="M29 16h22v3H29z"></path>
    <path fill="#ff9811" d="M51 14v2H29v-2a4.009 4.009 0 0 1 4-4h3V7a4 4 0 0 1 8 0v3h3a4.009 4.009 0 0 1 4 4Z"></path>
    <path fill="#ffd422" d="M36.28 26.72A4 4 0 1 1 33 25a4.009 4.009 0 0 1 3.28 1.72zm0 14A4 4 0 1 1 33 39a4.009 4.009 0 0 1 3.28 1.72z"></path>
    <path fill="#3d9ae2" d="M27 58.9V61h-9l-1.82-6.18L17 54l2 .67 1 .33.7-2.8 2.3 1.02.44.2A6 6 0 0 1 27 58.9Z"></path>
    <path fill="#1e81ce" d="M20.7 52.2 20 55l-1-.33v-3.23l1.7.76zM19 51.44v3.23L17 54l-1-2 2-1 1 .44z"></path>
    <path fill="#ed1c24" d="M16.18 54.82 18 61h-6l1.82-6.18L15 56l1.18-1.18z"></path>
    <path fill="#ed1c24" d="m16 52 1 2-.82.82L15 56l-1.18-1.18L13 54l1-2h2z"></path>
    <path fill="#1e81ce" d="m14 52-1 2-3 1-.7-2.8L12 51l2 1z"></path>
    <path fill="#3d9ae2" d="M13.82 54.82 12 61H3v-2.1a6 6 0 0 1 3.56-5.48L9.3 52.2 10 55l3-1Z"></path>
    <path fill="#57565c" d="M22 36v2h-.66a3.014 3.014 0 0 1-2.91-2.27L18 34a4 4 0 0 1-4 4H8v-2a7 7 0 1 1 14 0Z"></path>
    <path fill="#ffb655" d="M25 41a2.006 2.006 0 0 1-2 2h-2v-4h2a2.006 2.006 0 0 1 2 2zM9 39v4H7a2 2 0 0 1 0-4z"></path>
    <path fill="#ffc477" d="M18 48v3l-2 1h-2l-2-1v-3h6z"></path>
    <path fill="#ffb655" d="M18 48v2.32a6.958 6.958 0 0 1-6 0V48Z"></path>
    <path fill="#ffc477" d="M21.34 38a3.014 3.014 0 0 1-2.91-2.27L18 34a4 4 0 0 1-4 4H8v4a7 7 0 0 0 14 0v-4Z"></path>
    <path d="M11 40h2v2h-2zM17 40h2v2h-2z"></path>
    <path d="M23.846 52.506 19 50.351v-1.444a7.969 7.969 0 0 0 3.75-4.941c.084.007.165.034.25.034a3 3 0 0 0 0-6v-2a8 8 0 0 0-16 0v2a3 3 0 0 0 0 6c.085 0 .167-.027.252-.035a8 8 0 0 0 2.091 3.693A7.862 7.862 0 0 0 11 48.893v1.458l-4.846 2.155A7 7 0 0 0 2 58.9V61a1 1 0 0 0 1 1h24a1 1 0 0 0 1-1v-2.1a7 7 0 0 0-4.154-6.394Zm-4.32.267-.234.937-1.583-.528-.367-.735.683-.341ZM15 50a7.915 7.915 0 0 0 2-.262v.644L15.764 51h-1.528L13 50.382v-.644A7.921 7.921 0 0 0 15 50Zm-.783 3.8.4-.8h.764l.4.8-.781.786Zm.088 2.912a.99.99 0 0 0 1.39 0L16.663 60h-3.326ZM24 41a1 1 0 0 1-1 1v-2a1 1 0 0 1 1 1Zm-9-11a6.006 6.006 0 0 1 6 6v.97a2 2 0 0 1-1.6-1.485l-.432-1.728A1 1 0 0 0 17 34a3 3 0 0 1-3 3H9v-1a6.006 6.006 0 0 1 6-6ZM6 41a1 1 0 0 1 1-1v2a1 1 0 0 1-1-1Zm3.031 1.58A4.614 4.614 0 0 1 9 42v-3h5a5 5 0 0 0 3.93-1.912 3.985 3.985 0 0 0 3.07 1.89V42a4.6 4.6 0 0 1-.036.614 6 6 0 0 1-8.542 4.8 5.833 5.833 0 0 1-1.665-1.17 5.991 5.991 0 0 1-1.726-3.664Zm2.944 9.526.683.341-.367.735-1.583.528-.234-.937ZM4 58.9a5 5 0 0 1 2.966-4.567l1.653-.733.411 1.644A1 1 0 0 0 10 56a1.01 1.01 0 0 0 .316-.051l2.36-.787L11.252 60H4ZM26 60h-7.252l-1.424-4.838 2.36.787A1.01 1.01 0 0 0 20 56a1 1 0 0 0 .97-.757l.411-1.644 1.653.735A5 5 0 0 1 26 58.9Z"></path>
    <path d="M57 10h-7.031A4.952 4.952 0 0 0 47 9h-2V7a5 5 0 0 0-10 0v2h-2a4.952 4.952 0 0 0-2.969 1H23a5.006 5.006 0 0 0-5 5v12h2V15a3 3 0 0 1 3-3h5.424A4.95 4.95 0 0 0 28 14h-4a2 2 0 0 0-2 2v14h2V16h4v3a1 1 0 0 0 1 1h22a1 1 0 0 0 1-1v-3h4v32h-5a3 3 0 0 0-3 3v5H30v2h26a2 2 0 0 0 2-2V16a2 2 0 0 0-2-2h-4a4.95 4.95 0 0 0-.424-2H57a3 3 0 0 1 3 3v42a3 3 0 0 1-3 3H30v2h27a5.006 5.006 0 0 0 5-5V15a5.006 5.006 0 0 0-5-5Zm-7 41a1 1 0 0 1 1-1h3.586L50 54.586Zm1.414 5L56 51.414V56ZM33 11h3a1 1 0 0 0 1-1V7a3 3 0 0 1 6 0v3a1 1 0 0 0 1 1h3a3 3 0 0 1 3 3v1H30v-1a3 3 0 0 1 3-3Zm-3 7v-1h20v1ZM22 47h2v3h-2z"></path>
    <path d="M39 6h2v2h-2zM37.293 24.293l-.986.986a5.026 5.026 0 1 0 1.212 1.621l1.188-1.188zM36 29a3 3 0 1 1-3-3 2.972 2.972 0 0 1 1.894.692l-2.6 2.6 1.414 1.414 2.239-2.239A3.008 3.008 0 0 1 36 29zm2 14a4.94 4.94 0 0 0-.481-2.1l1.188-1.188-1.414-1.414-.986.986A4.98 4.98 0 1 0 38 43zm-8 0a3 3 0 0 1 3-3 2.972 2.972 0 0 1 1.894.692l-2.6 2.6 1.414 1.414 2.239-2.239A3 3 0 1 1 30 43zM42 30h10v2H42zM42 26h2v2h-2zM46 26h6v2h-6zM42 44h10v2H42zM42 40h2v2h-2zM46 40h6v2h-6z"></path>
  </g>
</svg>