<svg xmlns="http://www.w3.org/2000/svg" viewBox="0 0 46.16 50.98" id="youtube">
  <g style="isolation:isolate">
    <g>
      <g>
        <g>
          <path fill="red" d="M46.16,16.5v18c0,2.67-1.43,5.15-3.74,6.48l-14.45,8.35-.18.1-.05.03-.92.53c-2.31,1.33-5.17,1.33-7.48,0l-15.59-9.01c-2.32-1.33-3.75-3.81-3.75-6.48v-18c0-2.68,1.43-5.15,3.75-6.49L19.34,1.01c2.31-1.34,5.17-1.34,7.48,0l15.6,9c2.31,1.34,3.74,3.81,3.74,6.49Z"></path>
          <g style="mix-blend-mode:multiply">
            <path fill="#c00" d="M46.16,30.64v3.86c0,2.67-1.43,5.15-3.74,6.48l-14.45,8.35c-5.2-5.2-12.91-12.91-15.96-15.96-1.06-1.02-1.72-2.45-1.72-4.04v-6.67c0-.06,0-.13.01-.19.09-3.01,2.56-5.42,5.6-5.42h14.35c1.58,0,3.01.66,4.03,1.71.27.27.63.63,1.06,1.06,2.49,2.48,7.24,7.23,10.82,10.82Z" style="mix-blend-mode:multiply"></path>
          </g>
          <path fill="#fff" d="M35.34,19.82c-.88-1.93-2.83-3.27-5.09-3.27h-14.34c-3.1,0-5.61,2.51-5.61,5.61v6.68c0,3.1,2.51,5.61,5.61,5.61h14.34c3.1,0,5.61-2.51,5.61-5.61v-6.68c0-.84-.18-1.63-.52-2.34ZM27.43,26l-6.44,3.18c-.25.14-1.11-.04-1.11-.33v-6.53c0-.29.87-.48,1.12-.33l6.16,3.35c.26.15.53.52.27.66Z"></path>
        </g>
      </g>
    </g>
  </g>
</svg>
